PathFileType	4	(X/Y/Z)	\\147.46.242.158\로컬 디스크 (e)\MOCAP Data\Iguana Capture\iguana\Project 2\Capture day 7\Session 2\Take13.trc
DataRate	CameraRate	NumFrames	NumMarkers	Units	OrigDataRate	OrigDataStartFrame	OrigNumFrames
120.0	120.0	14	23	mm	120.0	291	7542
Frame#	Time	ana:head1			ana:head2			ana:bone1			ana:bone2			ana:bone3			ana:tail1			ana:tail2			ana:tail3			ana:tail4			ana:Rforefoot1			ana:Rforefoot2			ana:Rforefoot3			ana:Lforefoot1			ana:Lforefoot2			ana:Lforefoot3			ana:RhindLeg1			ana:RhindLeg2			ana:RhindLeg3			ana:RhindLeg4			ana:LhindLeg1			ana:LhindLeg2			ana:LhindLeg3			ana:LhindLeg4			
		X1	Y1	Z1	X2	Y2	Z2	X3	Y3	Z3	X4	Y4	Z4	X5	Y5	Z5	X6	Y6	Z6	X7	Y7	Z7	X8	Y8	Z8	X9	Y9	Z9	X10	Y10	Z10	X11	Y11	Z11	X12	Y12	Z12	X13	Y13	Z13	X14	Y14	Z14	X15	Y15	Z15	X16	Y16	Z16	X17	Y17	Z17	X18	Y18	Z18	X19	Y19	Z19	X20	Y20	Z20	X21	Y21	Z21	X22	Y22	Z22	X23	Y23	Z23	

4710	39.242	406.91992	152.33723	57.78638	406.29721	162.49092	56.92948	405.00467	183.07716	44.42645	398.10049	210.09720	37.06302	394.46872	240.69246	26.08069	391.27252	271.36325	16.00305	376.85699	304.38034	7.55980	355.46463	340.90674	5.87143	333.88248	376.63773	4.44943	396.72720	173.93053	25.32056	384.14136	180.50272	16.08901	392.24716	170.56648	2.53045	420.21442	180.44414	27.96925	428.68671	186.25633	18.89804	428.14978	182.26944	2.26305	385.24026	239.30205	19.80480	369.33295	227.76991	16.13523	373.78235	240.57927	2.05495	374.62662	230.94228	1.99662	402.89569	242.80841	20.37497	419.95538	242.17714	24.09261	417.83121	257.75024	10.56660	427.68469	255.80334	11.00441	
4711	39.250	407.26169	152.52133	57.94118	406.30261	162.62627	56.99596	404.95300	183.14397	44.42617	398.12689	210.20042	37.04873	394.62579	240.67261	25.91563	391.30206	271.50354	15.84039	376.92300	304.39386	7.46446	355.49149	340.94589	5.88526	333.90677	376.64667	4.45208	396.72641	173.94691	25.18248	384.04895	180.76404	16.00071	392.25470	170.59076	2.47745	420.07080	180.44626	27.91948	428.62613	186.23111	18.93258	428.15402	182.26530	2.26691	385.38342	239.25764	19.71755	369.40771	227.78459	16.18265	373.78491	240.57455	2.05679	374.33395	230.82684	2.21340	403.00287	242.74977	20.18095	420.19666	241.30518	23.81217	418.42664	256.66409	9.76866	428.36676	253.93513	10.36891	
4712	39.258	407.66284	152.71970	58.15828	406.29449	162.77159	57.01806	404.93481	183.21635	44.43292	398.21997	210.30702	37.03353	394.79605	240.60846	25.72112	391.32883	271.64700	15.63017	376.98911	304.39572	7.36000	355.51904	340.98389	5.89872	333.92706	376.64389	4.44856	396.75089	173.92226	25.09161	384.03830	180.92628	15.93432	392.26920	170.61743	2.43240	419.98483	180.44852	27.85703	428.58270	186.22150	18.94647	428.15839	182.25676	2.27138	385.55496	239.20924	19.53158	369.48303	227.79802	16.23442	373.78976	240.57190	2.05935	373.99786	230.67336	2.45463	403.12149	242.68916	19.97710	420.43582	240.49135	23.48515	418.96298	255.59146	8.91363	429.02817	252.11136	9.58731	
4713	39.267	408.08508	152.89711	58.34386	406.32626	162.92360	57.03131	404.94992	183.28934	44.44316	398.38559	210.41246	36.99658	394.98312	240.59021	25.52309	391.36356	271.76212	15.37490	377.04721	304.41669	7.26178	355.54520	341.02966	5.91589	333.94754	376.64001	4.44251	396.59402	173.93997	25.13894	384.06268	181.00542	15.93297	392.26318	170.60023	2.40579	419.96497	180.45090	27.79598	428.55771	186.21732	18.94131	428.16019	182.25684	2.27168	385.72601	239.15726	19.30898	369.56033	227.80153	16.28173	373.80151	240.56798	2.06109	373.64432	230.49757	2.70503	403.23532	242.61850	19.73064	420.65118	239.76030	23.12060	419.42548	254.40016	7.78935	429.55658	250.33148	8.69880	
4714	39.275	408.52466	153.14801	58.48695	406.34216	163.08479	57.01342	404.99512	183.35880	44.46649	398.64227	210.50987	36.93248	395.18939	240.55711	25.30374	391.40543	271.81433	15.11372	377.09711	304.45538	7.18342	355.58139	341.04605	5.91745	333.97107	376.64450	4.43785	396.48874	173.91846	25.25290	384.08798	180.95331	15.95735	392.25293	170.58994	2.38368	420.00323	180.45802	27.75048	428.55496	186.22270	18.91960	428.15793	182.25209	2.27815	385.86472	239.13301	19.06864	369.64420	227.78474	16.30890	373.81781	240.56511	2.06044	373.29962	230.31526	2.94931	403.35693	242.55341	19.45052	420.85809	239.07184	22.70137	419.82343	253.17920	6.74171	429.93387	248.72287	7.79492	
4715	39.283	409.02469	153.40669	58.65882	406.44342	163.22168	57.10131	405.05576	183.42996	44.49557	398.96796	210.58910	36.83548	395.39417	240.54980	25.04047	391.45630	271.81689	14.86854	377.12796	304.51959	7.12656	355.61362	341.06384	5.92364	333.98892	376.65604	4.43277	396.43723	173.86906	25.43632	384.17987	180.80678	16.01677	392.24454	170.57378	2.37109	420.06180	180.46823	27.71201	428.56235	186.23085	18.88927	428.15271	182.24141	2.28756	385.95877	239.13960	18.84475	369.75595	227.74379	16.32472	373.84125	240.56564	2.06376	372.98984	230.14217	3.17216	403.47781	242.49365	19.14128	421.04892	238.44431	22.25296	420.15463	252.00801	5.70366	430.13431	247.33107	6.89221	
4716	39.292	409.50095	153.60094	58.75473	406.65427	163.36296	57.24313	405.12979	183.49776	44.53161	399.31021	210.65024	36.71485	395.64749	240.59328	24.76919	391.53204	271.73187	14.65818	377.15118	304.59720	7.10099	355.64484	341.08521	5.93110	334.00583	376.67563	4.42990	396.49023	173.78363	25.65879	384.36661	180.56015	16.07117	392.23849	170.56946	2.35816	420.12939	180.48242	27.68435	428.58441	186.23073	18.86752	428.15158	182.23769	2.29169	386.02368	239.19254	18.66442	369.88712	227.68817	16.32573	373.86475	240.56557	2.06476	372.73691	229.99149	3.36073	403.59552	242.44095	18.82227	421.20264	237.89197	21.78801	420.47665	250.95442	4.80712	430.20346	246.13649	6.03457	
4717	39.300	409.98138	153.75117	58.85863	406.93460	163.47943	57.47246	405.21277	183.56660	44.57379	399.65073	210.69171	36.58030	395.91888	240.66641	24.50021	391.62415	271.61481	14.49771	377.16513	304.66553	7.09345	355.67319	341.10229	5.94341	334.02176	376.69678	4.42849	396.61737	173.66512	25.90055	384.63635	180.23099	16.11794	392.22617	170.55052	2.35215	420.20313	180.49344	27.67782	428.63202	186.21980	18.85971	428.12796	182.31018	2.26383	386.07291	239.25764	18.54310	370.05566	227.62701	16.32634	373.91180	240.54280	2.05513	372.65353	229.71707	3.44624	403.73752	242.39316	18.51539	421.37085	237.43153	21.28546	420.65308	250.13847	4.03878	430.21915	245.19064	5.28082	
4718	39.308	410.40546	153.94987	58.96707	407.28699	163.58629	57.72531	405.31860	183.64172	44.63354	399.96457	210.67770	36.46265	396.19870	240.73885	24.28573	391.73038	271.48260	14.37076	377.17801	304.71494	7.09221	355.70023	341.11786	5.95217	334.03592	376.71637	4.42413	396.80426	173.54289	26.12225	384.97656	179.86649	16.13980	392.22986	170.56769	2.33737	420.28656	180.50468	27.67638	428.69290	186.20833	18.85100	428.09241	182.43495	2.21340	386.12259	239.35547	18.44511	370.24686	227.56310	16.32821	373.95148	240.47932	2.06611	372.67520	229.47357	3.46179	403.86472	242.37575	18.20970	421.54028	237.08502	20.76884	420.78293	249.57132	3.37821	430.22015	244.45207	4.56325	
4719	39.317	410.79080	154.10342	59.10115	407.61880	163.69505	57.98699	405.43781	183.73032	44.70952	400.22510	210.62976	36.35852	396.47202	240.78365	24.15212	391.84229	271.34540	14.26464	377.19937	304.73462	7.08404	355.72223	341.12888	5.96343	334.05185	376.73773	4.42931	396.99451	173.46268	26.29606	385.33319	179.52655	16.13960	392.23312	170.57367	2.32856	420.37686	180.51920	27.68154	428.76709	186.19643	18.85278	428.03754	182.61272	2.14390	386.23016	239.44519	18.41609	370.45294	227.49902	16.33618	373.99271	240.39357	2.07503	372.79654	229.23946	3.41102	404.01056	242.35866	17.95629	421.71207	236.84587	20.25500	420.87900	249.15405	2.74331	430.24753	243.88268	3.94062	
4720	39.325	411.10995	154.31920	59.27198	407.87750	163.82416	58.16514	405.57446	183.82648	44.80309	400.45978	210.60922	36.28607	396.73950	240.81172	24.07941	391.93381	271.22824	14.17205	377.22083	304.72211	7.06223	355.73541	341.13232	5.97209	334.06543	376.74820	4.42976	397.16083	173.39539	26.42690	385.65308	179.26172	16.11735	392.23987	170.58200	2.31764	420.47763	180.53912	27.67959	428.84680	186.19360	18.85266	427.97946	182.80005	2.06781	386.35748	239.49515	18.35798	370.65598	227.43546	16.34680	373.99838	240.30975	2.13557	372.96118	229.06744	3.32616	404.19516	242.35420	17.77457	421.88834	236.71297	19.81434	420.94080	248.90874	2.22505	430.31277	243.49084	3.44571	
4721	39.333	411.41461	154.52190	59.44682	408.11777	163.95020	58.32306	405.72098	183.93625	44.90204	400.69009	210.55971	36.23646	396.96478	240.80365	24.03224	391.99915	271.14618	14.07731	377.23300	304.71347	7.04826	355.73990	341.13394	5.97891	334.07208	376.75247	4.43066	397.18729	173.40021	26.52068	385.92151	179.09456	16.09690	392.22781	170.55267	2.31331	420.58466	180.56743	27.66912	428.92075	186.19049	18.85750	427.92398	182.97098	1.99759	386.49869	239.52933	18.31263	370.85281	227.38399	16.35719	373.99396	240.21928	2.20769	373.10840	228.99362	3.24442	404.37936	242.38217	17.64122	422.05511	236.67807	19.48110	421.02087	248.75343	1.79971	430.36517	243.25662	3.12004	
4722	39.342	411.69760	154.65231	59.57981	408.28366	164.07948	58.40116	405.87103	184.04346	45.00702	400.91940	210.52945	36.21667	397.16037	240.82800	24.00502	392.04285	271.09021	14.00338	377.23383	304.70877	7.03858	355.73871	341.13232	5.98404	334.07642	376.75815	4.43545	397.19989	173.40695	26.58895	386.02747	179.04208	16.09805	392.21686	170.52199	2.30318	420.69208	180.59447	27.65723	428.99213	186.18340	18.86121	427.88177	183.08469	1.94936	386.62097	239.53052	18.27480	371.03128	227.34627	16.37242	373.98245	240.15115	2.27426	373.20444	229.00589	3.18870	404.55420	242.44220	17.54652	422.18912	236.70523	19.27163	421.07745	248.69162	1.53385	430.41016	243.13200	2.92939	
4723	39.350	411.99512	154.80515	59.75351	408.41565	164.18657	58.46442	406.01520	184.14018	45.10522	401.15881	210.51840	36.23623	397.30142	240.89323	23.96711	392.06152	271.07428	13.94355	377.22546	304.70670	7.03423	355.72897	341.13214	5.98753	334.07211	376.76044	4.43545	397.22018	173.40321	26.64438	385.98480	179.12042	16.16779	392.19678	170.45749	2.30230	420.79556	180.61713	27.65081	429.05435	186.16939	18.86279	427.87296	183.07584	1.95335	386.73862	239.46077	18.21237	371.19855	227.31789	16.38661	373.96277	240.08778	2.35364	373.25229	229.05821	3.15953	404.70804	242.51630	17.48794	422.29935	236.76979	19.16449	421.10953	248.67697	1.38833	430.42490	243.09401	2.84006	
